# xmcd CD database file
#
# Track frame offsets:
#	150
#	20695
#	37700
#
# Disc length: 772 seconds
#
# Revision: 0
# Processed by: cddbd v1.5.1PL0 Copyright (c) Steve Scherf et al.
# Submitted via: CDex 1.51
#
DISCID=17030203
DTITLE=氷室京介 - best haze odyssey rare mix session
DYEAR=2000
DGENRE=Rock
TTITLE0=魂を抱いてくれ(nylon-guitar version)
TTITLE1=Believe(nylon-guitar version)
TTITLE2=Still The One (rare mix)
EXTD=YEAR: 2000
EXTT0=
EXTT1=
EXTT2=
PLAYORDER=
